<?xml version="1.0" encoding="utf-8"?>
<!-- Generator: Adobe Illustrator 27.0.0, SVG Export Plug-In . SVG Version: 6.00 Build 0)  -->
<svg version="1.1" id="Layer_1" xmlns="http://www.w3.org/2000/svg" xmlns:xlink="http://www.w3.org/1999/xlink" x="0px" y="0px"
	 viewBox="0 0 32 32" style="enable-background:new 0 0 32 32;" xml:space="preserve">
<style type="text/css">
	.st0{fill:#6F1BB8;}
	.st1{fill:#FFFFFF;}
	.st2{fill:#009245;}
	.st3{fill:#8CC63F;}
</style>
<rect class="st0" width="32" height="32"/>
<g>
	<g>
		<path class="st1" d="M7,15.22c0,0.77-0.33,1.35-1,1.75c0.36,0.13,0.67,0.36,0.91,0.69c0.24,0.33,0.37,0.79,0.37,1.38
			c0,0.6-0.22,1.07-0.66,1.41c-0.44,0.35-1.07,0.52-1.89,0.52H2.1c-0.13,0-0.23-0.04-0.31-0.13c-0.08-0.09-0.12-0.2-0.12-0.34v-7.1
			c0-0.08,0.01-0.14,0.04-0.16c0.03-0.03,0.08-0.04,0.16-0.04H4.4C6.13,13.21,7,13.88,7,15.22z M3.8,15.01v1.45h0.06
			c0.71,0,1.07-0.24,1.07-0.71c0-0.26-0.07-0.45-0.21-0.57c-0.14-0.12-0.36-0.18-0.68-0.18C4.03,15.01,3.8,15.01,3.8,15.01z
			 M3.8,17.77v1.44H4c0.32,0,0.55-0.06,0.7-0.18c0.15-0.12,0.22-0.31,0.22-0.57s-0.07-0.44-0.21-0.54c-0.14-0.1-0.36-0.15-0.68-0.15
			H3.8z"/>
		<path class="st1" d="M10.11,20.89c0,0.07-0.38,0.1-1.13,0.1c-0.59-0.01-0.89-0.04-0.89-0.09v-7.55c0-0.11,0.36-0.17,1.08-0.17
			c0.63,0.02,0.94,0.06,0.94,0.11V20.89z"/>
		<path class="st1" d="M11.6,20.32c-0.46-0.51-0.69-1.22-0.69-2.12s0.23-1.61,0.69-2.12c0.46-0.51,1.09-0.77,1.87-0.77
			c0.78,0,1.41,0.25,1.87,0.77c0.46,0.51,0.69,1.22,0.69,2.12s-0.23,1.61-0.69,2.12c-0.46,0.51-1.08,0.77-1.87,0.77
			S12.06,20.83,11.6,20.32z M13.48,17.17c-0.42,0-0.63,0.34-0.63,1.02s0.21,1.02,0.63,1.02c0.42,0,0.63-0.34,0.63-1.02
			S13.89,17.17,13.48,17.17z"/>
		<path class="st1" d="M17.3,20.32c-0.46-0.51-0.69-1.22-0.69-2.12s0.23-1.61,0.69-2.12c0.46-0.51,1.09-0.77,1.87-0.77
			c0.78,0,1.41,0.25,1.87,0.77c0.46,0.51,0.69,1.22,0.69,2.12s-0.23,1.61-0.69,2.12c-0.46,0.51-1.08,0.77-1.87,0.77
			C18.39,21.09,17.76,20.83,17.3,20.32z M19.18,17.17c-0.42,0-0.63,0.34-0.63,1.02s0.21,1.02,0.63,1.02c0.42,0,0.63-0.34,0.63-1.02
			S19.6,17.17,19.18,17.17z"/>
		<path class="st1" d="M27.55,20.92c0,0.05-0.32,0.08-0.95,0.08c-0.63,0-0.95-0.03-0.95-0.1v-3.23c0-0.37-0.12-0.56-0.37-0.56
			c-0.13,0-0.29,0.08-0.5,0.24v3.55c0,0.07-0.32,0.11-0.95,0.11c-0.63,0-0.95-0.04-0.95-0.12v-3.62h-0.28
			c-0.24,0-0.37-0.25-0.37-0.77c0-0.23,0.04-0.46,0.13-0.7c0.12-0.33,0.31-0.49,0.58-0.49c0.27,0,0.52,0.07,0.77,0.21
			c0.25,0.14,0.4,0.27,0.45,0.4c0.46-0.41,0.97-0.61,1.53-0.61s1.01,0.17,1.35,0.52c0.4-0.35,0.88-0.52,1.44-0.52
			c1.22,0,1.83,0.74,1.83,2.23v3.37c0,0.05-0.32,0.08-0.95,0.08c-0.63,0-0.95-0.03-0.95-0.1v-3.23c0-0.37-0.12-0.56-0.37-0.56
			c-0.13,0-0.3,0.08-0.51,0.24L27.55,20.92L27.55,20.92z"/>
	</g>
	<g>
		<g>
			<path class="st2" d="M19.98,13.37c0,0-0.26-0.13-0.21-0.77c0.04-0.47,0.3-1.06-0.23-1.3c-0.06-0.19,1.12-0.56,1.6-0.29
				c0.49,0.28,0.89,0.62,0.89,0.62s0.28,0.17,0.44-0.4c0.69,0.42,0.3,1.31,0.3,1.31s0.24,0.13,0.54-0.44
				c0.14,1.42,0.31,2.41-0.96,3.16c-0.42,0.38-1.45,0.17-2.38-0.42l0.48-0.08c0,0-0.72-0.56-1.08-1.24L19.98,13.37z"/>
		</g>
		<g>
			<path class="st3" d="M22.32,15.2c-0.28-1.41-0.87-2.92-2.1-3.76c0.66,0.36,1.19,0.95,1.59,1.59c0.4,0.66,0.7,1.35,0.9,2.1
				c0.03,0.11-0.04,0.21-0.14,0.24C22.45,15.4,22.34,15.32,22.32,15.2L22.32,15.2z"/>
		</g>
		<g>
			<path class="st3" d="M22.24,14.29c0.27-0.34,0.63-0.69,0.73-1.13c0.03,0.47-0.22,0.92-0.4,1.35c-0.05,0.1-0.17,0.14-0.27,0.09
				C22.18,14.54,22.15,14.38,22.24,14.29L22.24,14.29z"/>
		</g>
		<g>
			<path class="st3" d="M21.89,14.14c-0.5-0.06-1.15-0.01-1.51-0.4c0.42,0.28,1.01,0.08,1.47,0.01c0.11-0.02,0.21,0.04,0.24,0.15
				C22.13,14.02,22.02,14.14,21.89,14.14L21.89,14.14z"/>
		</g>
		<g>
			<path class="st3" d="M21.74,12.76c0.16-0.22,0.38-0.53,0.22-0.81c0.29,0.23,0.21,0.67,0.13,1
				C21.99,13.25,21.55,13.02,21.74,12.76L21.74,12.76z"/>
		</g>
		<g>
			<path class="st3" d="M21.17,12.72c-0.33,0.02-0.78,0.02-0.95-0.31c0.25,0.21,0.6,0.05,0.84-0.07
				C21.35,12.2,21.49,12.68,21.17,12.72L21.17,12.72z"/>
		</g>
	</g>
</g>
</svg>
