<svg width="655" height="44" viewBox="0 0 655 44" fill="none" xmlns="http://www.w3.org/2000/svg">
<rect width="655" height="44" rx="22" fill="#8F0B0B"/>
<path d="M11.248 14.8594H14.1777V20.7188H20.3105V14.8594H23.2598V29H20.3105V23.1406H14.1777V29H11.248V14.8594ZM38.5918 21.9297C38.5918 23.4271 38.3053 24.7259 37.7324 25.8262C37.1595 26.9199 36.3717 27.7565 35.3691 28.3359C34.373 28.9089 33.2467 29.1953 31.9902 29.1953C30.7272 29.1953 29.5944 28.9056 28.5918 28.3262C27.5892 27.7467 26.8014 26.9102 26.2285 25.8164C25.6556 24.7161 25.3691 23.4206 25.3691 21.9297C25.3691 20.4323 25.6556 19.1367 26.2285 18.043C26.8014 16.9427 27.5892 16.1061 28.5918 15.5332C29.5944 14.9538 30.7272 14.6641 31.9902 14.6641C33.2467 14.6641 34.373 14.9538 35.3691 15.5332C36.3717 16.1061 37.1595 16.9427 37.7324 18.043C38.3053 19.1367 38.5918 20.4323 38.5918 21.9297ZM35.6035 21.9297C35.6035 20.9336 35.4538 20.0872 35.1543 19.3906C34.8613 18.694 34.4447 18.1667 33.9043 17.8086C33.3639 17.444 32.7259 17.2617 31.9902 17.2617C31.2546 17.2617 30.6133 17.444 30.0664 17.8086C29.526 18.1667 29.1061 18.6973 28.8066 19.4004C28.5072 20.097 28.3574 20.9401 28.3574 21.9297C28.3574 22.9193 28.5072 23.7656 28.8066 24.4688C29.1061 25.1654 29.526 25.696 30.0664 26.0605C30.6133 26.4186 31.2546 26.5977 31.9902 26.5977C32.7259 26.5977 33.3639 26.4186 33.9043 26.0605C34.4447 25.696 34.8613 25.1654 35.1543 24.4688C35.4538 23.7721 35.6035 22.9258 35.6035 21.9297ZM44.334 14.8594L48.2598 24.4492H48.416L52.3418 14.8594H55.9746V29H53.123V19.7422H53.0059L49.3145 28.9414H47.3613L43.6699 19.7031H43.5527V29H40.7012V14.8594H44.334ZM58.3574 14.8594H67.8496V17.2812H61.2871V20.7188H67.3613V23.1406H61.2871V26.5781H67.8691V29H58.3574V14.8594Z" fill="white"/>
<path d="M89.8281 29L94.7305 14.8594H98.5L103.383 29H100.238L99.1738 25.7383H94.0566L92.9922 29H89.8281ZM98.4316 23.4531L96.6641 18.043H96.5664L94.7988 23.4531H98.4316ZM104.984 14.8594H110.609C111.625 14.8594 112.484 15.0124 113.188 15.3184C113.891 15.6243 114.418 16.0508 114.77 16.5977C115.121 17.138 115.297 17.7695 115.297 18.4922C115.297 19.293 115.062 19.9538 114.594 20.4746C114.132 20.9954 113.52 21.3438 112.758 21.5195V21.6562C113.305 21.6823 113.812 21.8385 114.281 22.125C114.757 22.4115 115.137 22.8118 115.424 23.3262C115.717 23.834 115.863 24.4232 115.863 25.0938C115.863 25.8555 115.674 26.5293 115.297 27.1152C114.926 27.7012 114.372 28.1634 113.637 28.502C112.908 28.834 112.022 29 110.98 29H104.984V14.8594ZM110.395 26.5781C111.215 26.5781 111.824 26.4251 112.221 26.1191C112.618 25.8066 112.816 25.3737 112.816 24.8203C112.816 24.4232 112.719 24.0716 112.523 23.7656C112.335 23.4596 112.064 23.222 111.713 23.0527C111.361 22.877 110.948 22.7891 110.473 22.7891H107.914V26.5781H110.395ZM110.18 20.7773C110.59 20.7773 110.958 20.7057 111.283 20.5625C111.609 20.4128 111.863 20.2012 112.045 19.9277C112.234 19.6543 112.328 19.332 112.328 18.9609C112.328 18.4401 112.143 18.0234 111.771 17.7109C111.407 17.3984 110.896 17.2422 110.238 17.2422H107.914V20.7773H110.18ZM130.668 21.9297C130.668 23.4271 130.382 24.7259 129.809 25.8262C129.236 26.9199 128.448 27.7565 127.445 28.3359C126.449 28.9089 125.323 29.1953 124.066 29.1953C122.803 29.1953 121.671 28.9056 120.668 28.3262C119.665 27.7467 118.878 26.9102 118.305 25.8164C117.732 24.7161 117.445 23.4206 117.445 21.9297C117.445 20.4323 117.732 19.1367 118.305 18.043C118.878 16.9427 119.665 16.1061 120.668 15.5332C121.671 14.9538 122.803 14.6641 124.066 14.6641C125.323 14.6641 126.449 14.9538 127.445 15.5332C128.448 16.1061 129.236 16.9427 129.809 18.043C130.382 19.1367 130.668 20.4323 130.668 21.9297ZM127.68 21.9297C127.68 20.9336 127.53 20.0872 127.23 19.3906C126.938 18.694 126.521 18.1667 125.98 17.8086C125.44 17.444 124.802 17.2617 124.066 17.2617C123.331 17.2617 122.689 17.444 122.143 17.8086C121.602 18.1667 121.182 18.6973 120.883 19.4004C120.583 20.097 120.434 20.9401 120.434 21.9297C120.434 22.9193 120.583 23.7656 120.883 24.4688C121.182 25.1654 121.602 25.696 122.143 26.0605C122.689 26.4186 123.331 26.5977 124.066 26.5977C124.802 26.5977 125.44 26.4186 125.98 26.0605C126.521 25.696 126.938 25.1654 127.23 24.4688C127.53 23.7721 127.68 22.9258 127.68 21.9297ZM144.477 14.8594V24.0391C144.477 25.0612 144.232 25.9629 143.744 26.7441C143.256 27.5254 142.569 28.1309 141.684 28.5605C140.798 28.9837 139.776 29.1953 138.617 29.1953C137.458 29.1953 136.436 28.9837 135.551 28.5605C134.672 28.1309 133.988 27.5254 133.5 26.7441C133.018 25.9629 132.777 25.0612 132.777 24.0391V14.8594H135.707V23.8047C135.707 24.3451 135.827 24.8301 136.068 25.2598C136.309 25.6829 136.651 26.015 137.094 26.2559C137.536 26.4967 138.044 26.6172 138.617 26.6172C139.197 26.6172 139.708 26.4967 140.15 26.2559C140.593 26.015 140.932 25.6829 141.166 25.2598C141.407 24.8301 141.527 24.3451 141.527 23.8047V14.8594H144.477ZM146.312 14.8594H157.895V17.2812H153.559V29H150.648V17.2812H146.312V14.8594ZM167.953 14.8594L171.879 24.4492H172.035L175.961 14.8594H179.594V29H176.742V19.7422H176.625L172.934 28.9414H170.98L167.289 19.7031H167.172V29H164.32V14.8594H167.953ZM181.977 14.8594H191.469V17.2812H184.906V20.7188H190.98V23.1406H184.906V26.5781H191.488V29H181.977V14.8594Z" fill="white"/>
<path d="M214.631 14.8594H220.178C221.232 14.8594 222.141 15.0612 222.902 15.4648C223.664 15.862 224.243 16.4219 224.641 17.1445C225.038 17.8607 225.236 18.6875 225.236 19.625C225.236 20.569 225.031 21.4023 224.621 22.125C224.217 22.8411 223.628 23.3978 222.854 23.7949C222.085 24.1921 221.167 24.3906 220.1 24.3906H217.561V29H214.631V14.8594ZM219.631 22.0273C220.477 22.0273 221.118 21.8125 221.555 21.3828C221.991 20.9466 222.209 20.3607 222.209 19.625C222.209 18.8958 221.991 18.3197 221.555 17.8965C221.118 17.4733 220.477 17.2617 219.631 17.2617H217.561V22.0273H219.631ZM240.041 21.9297C240.041 23.4271 239.755 24.7259 239.182 25.8262C238.609 26.9199 237.821 27.7565 236.818 28.3359C235.822 28.9089 234.696 29.1953 233.439 29.1953C232.176 29.1953 231.044 28.9056 230.041 28.3262C229.038 27.7467 228.251 26.9102 227.678 25.8164C227.105 24.7161 226.818 23.4206 226.818 21.9297C226.818 20.4323 227.105 19.1367 227.678 18.043C228.251 16.9427 229.038 16.1061 230.041 15.5332C231.044 14.9538 232.176 14.6641 233.439 14.6641C234.696 14.6641 235.822 14.9538 236.818 15.5332C237.821 16.1061 238.609 16.9427 239.182 18.043C239.755 19.1367 240.041 20.4323 240.041 21.9297ZM237.053 21.9297C237.053 20.9336 236.903 20.0872 236.604 19.3906C236.311 18.694 235.894 18.1667 235.354 17.8086C234.813 17.444 234.175 17.2617 233.439 17.2617C232.704 17.2617 232.062 17.444 231.516 17.8086C230.975 18.1667 230.555 18.6973 230.256 19.4004C229.956 20.097 229.807 20.9401 229.807 21.9297C229.807 22.9193 229.956 23.7656 230.256 24.4688C230.555 25.1654 230.975 25.696 231.516 26.0605C232.062 26.4186 232.704 26.5977 233.439 26.5977C234.175 26.5977 234.813 26.4186 235.354 26.0605C235.894 25.696 236.311 25.1654 236.604 24.4688C236.903 23.7721 237.053 22.9258 237.053 21.9297ZM242.15 14.8594H247.697C248.752 14.8594 249.66 15.0612 250.422 15.4648C251.184 15.862 251.763 16.4219 252.16 17.1445C252.557 17.8607 252.756 18.6875 252.756 19.625C252.756 20.569 252.551 21.4023 252.141 22.125C251.737 22.8411 251.148 23.3978 250.373 23.7949C249.605 24.1921 248.687 24.3906 247.619 24.3906H245.08V29H242.15V14.8594ZM247.15 22.0273C247.997 22.0273 248.638 21.8125 249.074 21.3828C249.51 20.9466 249.729 20.3607 249.729 19.625C249.729 18.8958 249.51 18.3197 249.074 17.8965C248.638 17.4733 247.997 17.2617 247.15 17.2617H245.08V22.0273H247.15ZM266.311 14.8594V24.0391C266.311 25.0612 266.066 25.9629 265.578 26.7441C265.09 27.5254 264.403 28.1309 263.518 28.5605C262.632 28.9837 261.61 29.1953 260.451 29.1953C259.292 29.1953 258.27 28.9837 257.385 28.5605C256.506 28.1309 255.822 27.5254 255.334 26.7441C254.852 25.9629 254.611 25.0612 254.611 24.0391V14.8594H257.541V23.8047C257.541 24.3451 257.661 24.8301 257.902 25.2598C258.143 25.6829 258.485 26.015 258.928 26.2559C259.37 26.4967 259.878 26.6172 260.451 26.6172C261.031 26.6172 261.542 26.4967 261.984 26.2559C262.427 26.015 262.766 25.6829 263 25.2598C263.241 24.8301 263.361 24.3451 263.361 23.8047V14.8594H266.311ZM268.693 14.8594H274.24C275.295 14.8594 276.203 15.0612 276.965 15.4648C277.727 15.862 278.306 16.4219 278.703 17.1445C279.1 17.8607 279.299 18.6875 279.299 19.625C279.299 20.569 279.094 21.4023 278.684 22.125C278.28 22.8411 277.691 23.3978 276.916 23.7949C276.148 24.1921 275.23 24.3906 274.162 24.3906H271.623V29H268.693V14.8594ZM273.693 22.0273C274.54 22.0273 275.181 21.8125 275.617 21.3828C276.053 20.9466 276.271 20.3607 276.271 19.625C276.271 18.8958 276.053 18.3197 275.617 17.8965C275.181 17.4733 274.54 17.2617 273.693 17.2617H271.623V22.0273H273.693ZM288.83 18.9023C288.771 18.3424 288.527 17.9062 288.098 17.5938C287.668 17.2812 287.098 17.125 286.389 17.125C285.9 17.125 285.48 17.1966 285.129 17.3398C284.784 17.4766 284.52 17.6686 284.338 17.916C284.156 18.1634 284.064 18.4466 284.064 18.7656C284.064 19.2214 284.27 19.5859 284.68 19.8594C285.09 20.1328 285.64 20.3477 286.33 20.5039L287.6 20.8164C288.908 21.1094 289.94 21.5944 290.695 22.2715C291.457 22.9421 291.838 23.8372 291.838 24.957C291.838 25.8229 291.62 26.5749 291.184 27.2129C290.747 27.8444 290.119 28.3327 289.299 28.6777C288.479 29.0228 287.502 29.1953 286.369 29.1953C285.223 29.1953 284.227 29.0195 283.381 28.668C282.541 28.3164 281.887 27.7988 281.418 27.1152C280.956 26.4251 280.712 25.582 280.686 24.5859H283.537C283.583 25.2826 283.856 25.8164 284.357 26.1875C284.865 26.5521 285.523 26.7344 286.33 26.7344C286.838 26.7344 287.284 26.6595 287.668 26.5098C288.052 26.36 288.348 26.1517 288.557 25.8848C288.765 25.6178 288.869 25.3086 288.869 24.957C288.869 24.5013 288.671 24.14 288.273 23.873C287.883 23.6061 287.274 23.3685 286.447 23.1602L284.904 22.7891C282.339 22.1576 281.057 20.875 281.057 18.9414C281.057 18.0951 281.285 17.3496 281.74 16.7051C282.202 16.054 282.84 15.5527 283.654 15.2012C284.468 14.8431 285.386 14.6641 286.408 14.6641C287.437 14.6641 288.345 14.8431 289.133 15.2012C289.921 15.5592 290.533 16.0605 290.969 16.7051C291.405 17.3431 291.63 18.0755 291.643 18.9023H288.83Z" fill="white"/>
<path d="M314.461 14.8594H320.086C321.102 14.8594 321.961 15.0124 322.664 15.3184C323.367 15.6243 323.895 16.0508 324.246 16.5977C324.598 17.138 324.773 17.7695 324.773 18.4922C324.773 19.293 324.539 19.9538 324.07 20.4746C323.608 20.9954 322.996 21.3438 322.234 21.5195V21.6562C322.781 21.6823 323.289 21.8385 323.758 22.125C324.233 22.4115 324.614 22.8118 324.9 23.3262C325.193 23.834 325.34 24.4232 325.34 25.0938C325.34 25.8555 325.151 26.5293 324.773 27.1152C324.402 27.7012 323.849 28.1634 323.113 28.502C322.384 28.834 321.499 29 320.457 29H314.461V14.8594ZM319.871 26.5781C320.691 26.5781 321.3 26.4251 321.697 26.1191C322.094 25.8066 322.293 25.3737 322.293 24.8203C322.293 24.4232 322.195 24.0716 322 23.7656C321.811 23.4596 321.541 23.222 321.189 23.0527C320.838 22.877 320.424 22.7891 319.949 22.7891H317.391V26.5781H319.871ZM319.656 20.7773C320.066 20.7773 320.434 20.7057 320.76 20.5625C321.085 20.4128 321.339 20.2012 321.521 19.9277C321.71 19.6543 321.805 19.332 321.805 18.9609C321.805 18.4401 321.619 18.0234 321.248 17.7109C320.883 17.3984 320.372 17.2422 319.715 17.2422H317.391V20.7773H319.656ZM326.395 29L331.297 14.8594H335.066L339.949 29H336.805L335.74 25.7383H330.623L329.559 29H326.395ZM334.998 23.4531L333.23 18.043H333.133L331.365 23.4531H334.998ZM353.348 29H350.809L344.598 20.0156H344.48V29H341.551V14.8594H344.129L350.301 23.8438H350.438V14.8594H353.348V29ZM367.527 29H364.988L358.777 20.0156H358.66V29H355.73V14.8594H358.309L364.48 23.8438H364.617V14.8594H367.527V29ZM369.91 14.8594H379.402V17.2812H372.84V20.7188H378.914V23.1406H372.84V26.5781H379.422V29H369.91V14.8594ZM381.688 14.8594H387.234C388.296 14.8594 389.204 15.0482 389.959 15.4258C390.721 15.8034 391.3 16.3405 391.697 17.0371C392.094 17.7272 392.293 18.5378 392.293 19.4688C392.293 20.4323 392.078 21.2591 391.648 21.9492C391.219 22.6393 390.6 23.1569 389.793 23.502L392.801 29H389.559L386.854 23.9805H384.617V29H381.688V14.8594ZM386.688 21.5977C388.406 21.5977 389.266 20.888 389.266 19.4688C389.266 18.7461 389.051 18.1992 388.621 17.8281C388.191 17.4505 387.547 17.2617 386.688 17.2617H384.617V21.5977H386.688ZM402 18.9023C401.941 18.3424 401.697 17.9062 401.268 17.5938C400.838 17.2812 400.268 17.125 399.559 17.125C399.07 17.125 398.65 17.1966 398.299 17.3398C397.954 17.4766 397.69 17.6686 397.508 17.916C397.326 18.1634 397.234 18.4466 397.234 18.7656C397.234 19.2214 397.439 19.5859 397.85 19.8594C398.26 20.1328 398.81 20.3477 399.5 20.5039L400.77 20.8164C402.078 21.1094 403.11 21.5944 403.865 22.2715C404.627 22.9421 405.008 23.8372 405.008 24.957C405.008 25.8229 404.79 26.5749 404.354 27.2129C403.917 27.8444 403.289 28.3327 402.469 28.6777C401.648 29.0228 400.672 29.1953 399.539 29.1953C398.393 29.1953 397.397 29.0195 396.551 28.668C395.711 28.3164 395.057 27.7988 394.588 27.1152C394.126 26.4251 393.882 25.582 393.855 24.5859H396.707C396.753 25.2826 397.026 25.8164 397.527 26.1875C398.035 26.5521 398.693 26.7344 399.5 26.7344C400.008 26.7344 400.454 26.6595 400.838 26.5098C401.222 26.36 401.518 26.1517 401.727 25.8848C401.935 25.6178 402.039 25.3086 402.039 24.957C402.039 24.5013 401.84 24.14 401.443 23.873C401.053 23.6061 400.444 23.3685 399.617 23.1602L398.074 22.7891C395.509 22.1576 394.227 20.875 394.227 18.9414C394.227 18.0951 394.454 17.3496 394.91 16.7051C395.372 16.054 396.01 15.5527 396.824 15.2012C397.638 14.8431 398.556 14.6641 399.578 14.6641C400.607 14.6641 401.515 14.8431 402.303 15.2012C403.09 15.5592 403.702 16.0605 404.139 16.7051C404.575 17.3431 404.799 18.0755 404.812 18.9023H402Z" fill="white"/>
<path d="M427.295 14.8594H432.842C433.896 14.8594 434.805 15.0612 435.566 15.4648C436.328 15.862 436.908 16.4219 437.305 17.1445C437.702 17.8607 437.9 18.6875 437.9 19.625C437.9 20.569 437.695 21.4023 437.285 22.125C436.882 22.8411 436.292 23.3978 435.518 23.7949C434.749 24.1921 433.831 24.3906 432.764 24.3906H430.225V29H427.295V14.8594ZM432.295 22.0273C433.141 22.0273 433.783 21.8125 434.219 21.3828C434.655 20.9466 434.873 20.3607 434.873 19.625C434.873 18.8958 434.655 18.3197 434.219 17.8965C433.783 17.4733 433.141 17.2617 432.295 17.2617H430.225V22.0273H432.295ZM439.756 14.8594H445.303C446.364 14.8594 447.272 15.0482 448.027 15.4258C448.789 15.8034 449.368 16.3405 449.766 17.0371C450.163 17.7272 450.361 18.5378 450.361 19.4688C450.361 20.4323 450.146 21.2591 449.717 21.9492C449.287 22.6393 448.669 23.1569 447.861 23.502L450.869 29H447.627L444.922 23.9805H442.686V29H439.756V14.8594ZM444.756 21.5977C446.475 21.5977 447.334 20.888 447.334 19.4688C447.334 18.7461 447.119 18.1992 446.689 17.8281C446.26 17.4505 445.615 17.2617 444.756 17.2617H442.686V21.5977H444.756ZM465.342 21.9297C465.342 23.4271 465.055 24.7259 464.482 25.8262C463.91 26.9199 463.122 27.7565 462.119 28.3359C461.123 28.9089 459.997 29.1953 458.74 29.1953C457.477 29.1953 456.344 28.9056 455.342 28.3262C454.339 27.7467 453.551 26.9102 452.979 25.8164C452.406 24.7161 452.119 23.4206 452.119 21.9297C452.119 20.4323 452.406 19.1367 452.979 18.043C453.551 16.9427 454.339 16.1061 455.342 15.5332C456.344 14.9538 457.477 14.6641 458.74 14.6641C459.997 14.6641 461.123 14.9538 462.119 15.5332C463.122 16.1061 463.91 16.9427 464.482 18.043C465.055 19.1367 465.342 20.4323 465.342 21.9297ZM462.354 21.9297C462.354 20.9336 462.204 20.0872 461.904 19.3906C461.611 18.694 461.195 18.1667 460.654 17.8086C460.114 17.444 459.476 17.2617 458.74 17.2617C458.005 17.2617 457.363 17.444 456.816 17.8086C456.276 18.1667 455.856 18.6973 455.557 19.4004C455.257 20.097 455.107 20.9401 455.107 21.9297C455.107 22.9193 455.257 23.7656 455.557 24.4688C455.856 25.1654 456.276 25.696 456.816 26.0605C457.363 26.4186 458.005 26.5977 458.74 26.5977C459.476 26.5977 460.114 26.4186 460.654 26.0605C461.195 25.696 461.611 25.1654 461.904 24.4688C462.204 23.7721 462.354 22.9258 462.354 21.9297ZM476.006 14.8594V24.7227C476.006 25.6276 475.804 26.4186 475.4 27.0957C475.003 27.7663 474.443 28.2839 473.721 28.6484C472.998 29.013 472.165 29.1953 471.221 29.1953C470.348 29.1953 469.567 29.0423 468.877 28.7363C468.187 28.4238 467.643 27.9583 467.246 27.3398C466.855 26.7148 466.663 25.9531 466.67 25.0547H469.6C469.606 25.6081 469.769 26.0443 470.088 26.3633C470.407 26.6758 470.83 26.832 471.357 26.832C471.917 26.832 472.347 26.653 472.646 26.2949C472.946 25.9368 473.096 25.4128 473.096 24.7227V14.8594H476.006ZM478.389 14.8594H487.881V17.2812H481.318V20.7188H487.393V23.1406H481.318V26.5781H487.9V29H478.389V14.8594ZM499.619 19.7812C499.541 19.2669 499.362 18.821 499.082 18.4434C498.802 18.0592 498.444 17.7663 498.008 17.5645C497.572 17.3626 497.08 17.2617 496.533 17.2617C495.798 17.2617 495.153 17.4473 494.6 17.8184C494.053 18.1829 493.63 18.7168 493.33 19.4199C493.031 20.1165 492.881 20.9531 492.881 21.9297C492.881 22.9258 493.031 23.7754 493.33 24.4785C493.63 25.1751 494.053 25.7025 494.6 26.0605C495.146 26.4186 495.785 26.5977 496.514 26.5977C497.327 26.5977 498.011 26.3828 498.564 25.9531C499.124 25.5234 499.476 24.931 499.619 24.1758L502.588 24.1953C502.477 25.0872 502.161 25.9141 501.641 26.6758C501.12 27.4375 500.417 28.0495 499.531 28.5117C498.646 28.9674 497.627 29.1953 496.475 29.1953C495.205 29.1953 494.072 28.9089 493.076 28.3359C492.08 27.7565 491.299 26.9199 490.732 25.8262C490.173 24.7324 489.893 23.4336 489.893 21.9297C489.893 20.4323 490.176 19.1367 490.742 18.043C491.315 16.9427 492.1 16.1061 493.096 15.5332C494.098 14.9538 495.225 14.6641 496.475 14.6641C497.562 14.6641 498.545 14.8659 499.424 15.2695C500.303 15.6732 501.016 16.2624 501.562 17.0371C502.116 17.8053 502.458 18.7201 502.588 19.7812H499.619ZM504.092 14.8594H515.674V17.2812H511.338V29H508.428V17.2812H504.092V14.8594ZM525.166 18.9023C525.107 18.3424 524.863 17.9062 524.434 17.5938C524.004 17.2812 523.434 17.125 522.725 17.125C522.236 17.125 521.816 17.1966 521.465 17.3398C521.12 17.4766 520.856 17.6686 520.674 17.916C520.492 18.1634 520.4 18.4466 520.4 18.7656C520.4 19.2214 520.605 19.5859 521.016 19.8594C521.426 20.1328 521.976 20.3477 522.666 20.5039L523.936 20.8164C525.244 21.1094 526.276 21.5944 527.031 22.2715C527.793 22.9421 528.174 23.8372 528.174 24.957C528.174 25.8229 527.956 26.5749 527.52 27.2129C527.083 27.8444 526.455 28.3327 525.635 28.6777C524.814 29.0228 523.838 29.1953 522.705 29.1953C521.559 29.1953 520.563 29.0195 519.717 28.668C518.877 28.3164 518.223 27.7988 517.754 27.1152C517.292 26.4251 517.048 25.582 517.021 24.5859H519.873C519.919 25.2826 520.192 25.8164 520.693 26.1875C521.201 26.5521 521.859 26.7344 522.666 26.7344C523.174 26.7344 523.62 26.6595 524.004 26.5098C524.388 26.36 524.684 26.1517 524.893 25.8848C525.101 25.6178 525.205 25.3086 525.205 24.957C525.205 24.5013 525.007 24.14 524.609 23.873C524.219 23.6061 523.61 23.3685 522.783 23.1602L521.24 22.7891C518.675 22.1576 517.393 20.875 517.393 18.9414C517.393 18.0951 517.62 17.3496 518.076 16.7051C518.538 16.054 519.176 15.5527 519.99 15.2012C520.804 14.8431 521.722 14.6641 522.744 14.6641C523.773 14.6641 524.681 14.8431 525.469 15.2012C526.257 15.5592 526.868 16.0605 527.305 16.7051C527.741 17.3431 527.965 18.0755 527.979 18.9023H525.166Z" fill="white"/>
<path d="M559.725 19.7812C559.646 19.2669 559.467 18.821 559.188 18.4434C558.908 18.0592 558.549 17.7663 558.113 17.5645C557.677 17.3626 557.186 17.2617 556.639 17.2617C555.903 17.2617 555.258 17.4473 554.705 17.8184C554.158 18.1829 553.735 18.7168 553.436 19.4199C553.136 20.1165 552.986 20.9531 552.986 21.9297C552.986 22.9258 553.136 23.7754 553.436 24.4785C553.735 25.1751 554.158 25.7025 554.705 26.0605C555.252 26.4186 555.89 26.5977 556.619 26.5977C557.433 26.5977 558.117 26.3828 558.67 25.9531C559.23 25.5234 559.581 24.931 559.725 24.1758L562.693 24.1953C562.583 25.0872 562.267 25.9141 561.746 26.6758C561.225 27.4375 560.522 28.0495 559.637 28.5117C558.751 28.9674 557.732 29.1953 556.58 29.1953C555.311 29.1953 554.178 28.9089 553.182 28.3359C552.186 27.7565 551.404 26.9199 550.838 25.8262C550.278 24.7324 549.998 23.4336 549.998 21.9297C549.998 20.4323 550.281 19.1367 550.848 18.043C551.421 16.9427 552.205 16.1061 553.201 15.5332C554.204 14.9538 555.33 14.6641 556.58 14.6641C557.667 14.6641 558.65 14.8659 559.529 15.2695C560.408 15.6732 561.121 16.2624 561.668 17.0371C562.221 17.8053 562.563 18.7201 562.693 19.7812H559.725ZM577.693 21.9297C577.693 23.4271 577.407 24.7259 576.834 25.8262C576.261 26.9199 575.473 27.7565 574.471 28.3359C573.475 28.9089 572.348 29.1953 571.092 29.1953C569.829 29.1953 568.696 28.9056 567.693 28.3262C566.691 27.7467 565.903 26.9102 565.33 25.8164C564.757 24.7161 564.471 23.4206 564.471 21.9297C564.471 20.4323 564.757 19.1367 565.33 18.043C565.903 16.9427 566.691 16.1061 567.693 15.5332C568.696 14.9538 569.829 14.6641 571.092 14.6641C572.348 14.6641 573.475 14.9538 574.471 15.5332C575.473 16.1061 576.261 16.9427 576.834 18.043C577.407 19.1367 577.693 20.4323 577.693 21.9297ZM574.705 21.9297C574.705 20.9336 574.555 20.0872 574.256 19.3906C573.963 18.694 573.546 18.1667 573.006 17.8086C572.465 17.444 571.827 17.2617 571.092 17.2617C570.356 17.2617 569.715 17.444 569.168 17.8086C568.628 18.1667 568.208 18.6973 567.908 19.4004C567.609 20.097 567.459 20.9401 567.459 21.9297C567.459 22.9193 567.609 23.7656 567.908 24.4688C568.208 25.1654 568.628 25.696 569.168 26.0605C569.715 26.4186 570.356 26.5977 571.092 26.5977C571.827 26.5977 572.465 26.4186 573.006 26.0605C573.546 25.696 573.963 25.1654 574.256 24.4688C574.555 23.7721 574.705 22.9258 574.705 21.9297ZM591.6 29H589.061L582.85 20.0156H582.732V29H579.803V14.8594H582.381L588.553 23.8438H588.689V14.8594H591.6V29ZM593.436 14.8594H605.018V17.2812H600.682V29H597.771V17.2812H593.436V14.8594ZM604.295 29L609.197 14.8594H612.967L617.85 29H614.705L613.641 25.7383H608.523L607.459 29H604.295ZM612.898 23.4531L611.131 18.043H611.033L609.266 23.4531H612.898ZM628.24 19.7812C628.162 19.2669 627.983 18.821 627.703 18.4434C627.423 18.0592 627.065 17.7663 626.629 17.5645C626.193 17.3626 625.701 17.2617 625.154 17.2617C624.419 17.2617 623.774 17.4473 623.221 17.8184C622.674 18.1829 622.251 18.7168 621.951 19.4199C621.652 20.1165 621.502 20.9531 621.502 21.9297C621.502 22.9258 621.652 23.7754 621.951 24.4785C622.251 25.1751 622.674 25.7025 623.221 26.0605C623.768 26.4186 624.406 26.5977 625.135 26.5977C625.949 26.5977 626.632 26.3828 627.186 25.9531C627.745 25.5234 628.097 24.931 628.24 24.1758L631.209 24.1953C631.098 25.0872 630.783 25.9141 630.262 26.6758C629.741 27.4375 629.038 28.0495 628.152 28.5117C627.267 28.9674 626.248 29.1953 625.096 29.1953C623.826 29.1953 622.693 28.9089 621.697 28.3359C620.701 27.7565 619.92 26.9199 619.354 25.8262C618.794 24.7324 618.514 23.4336 618.514 21.9297C618.514 20.4323 618.797 19.1367 619.363 18.043C619.936 16.9427 620.721 16.1061 621.717 15.5332C622.719 14.9538 623.846 14.6641 625.096 14.6641C626.183 14.6641 627.166 14.8659 628.045 15.2695C628.924 15.6732 629.637 16.2624 630.184 17.0371C630.737 17.8053 631.079 18.7201 631.209 19.7812H628.24ZM632.713 14.8594H644.295V17.2812H639.959V29H637.049V17.2812H632.713V14.8594Z" fill="white"/>
</svg>
