<?xml version="1.0" encoding="utf-8"?>
<!-- Generator: Adobe Illustrator 27.0.0, SVG Export Plug-In . SVG Version: 6.00 Build 0)  -->
<svg version="1.1" id="Layer_1" xmlns="http://www.w3.org/2000/svg" xmlns:xlink="http://www.w3.org/1999/xlink" x="0px" y="0px"
	 viewBox="0 0 60 60" style="enable-background:new 0 0 60 60;" xml:space="preserve">
<style type="text/css">
	.st0{fill:#DC2F34;}
	.st1{fill:#FFFFFF;}
	.st2{display:none;fill:#FFFFFF;}
</style>
<path class="st0" d="M53.3,23.5c0,0-2.7-3.3-7.3-3.9c0,0-0.9-15.1-16-15.1l0,0l0,0l0,0c-15.1,0-16,15.1-16,15.1
	c-4.6,0.6-7.3,3.9-7.3,3.9c-4.8,5-2.4,12.4-2.4,12.4c3.1,10.2,10.4,14.7,10.4,14.7c5.9,4,11.7,4.7,15.3,4.8l0,0l0,0
	c3.6-0.1,9.4-0.8,15.3-4.8c0,0,7.4-4.5,10.4-14.7C55.8,35.9,58.2,28.5,53.3,23.5z"/>
<path class="st1" d="M51.4,24.7c0,0-2.3-2.6-7.5-3.1c0,0-0.3-15-13.9-15l0,0l0,0c-13.6,0-13.9,15-13.9,15c-5.2,0.5-7.5,3.1-7.5,3.1
	c-4.4,4.5-2.1,10.9-2.1,10.9C9.3,45,16.1,49,16.1,49c5.5,3.7,10.6,4.4,13.9,4.4l0,0l0,0c3.3,0,8.5-0.7,13.9-4.4c0,0,6.8-4,9.6-13.4
	C53.5,35.6,55.8,29.2,51.4,24.7z"/>
<path class="st0" d="M45.8,26.1c-1.6-0.1-6.3,0-6.3,0s-3.6,4.7-9.4,4.8c-5.8,0.1-9.4-4.8-9.4-4.8s-4.7-0.1-6.3,0
	c-12.6,0.6-3.7,25.6,15.7,25.3C49.8,51.1,58.2,26.7,45.8,26.1z"/>
<path class="st2" d="M19.9,32.3c-2.7,0-4.9,1.8-4.9,3.9c0,1.7,1.5,3.2,3.5,3.7v2.3h-3.2v1.2h9.4v-1.2h-3.3v-2.3c2-0.5,3.5-2,3.5-3.7
	C24.8,34.1,22.6,32.3,19.9,32.3z M19.9,38.9c-1.2,0-2.2-1.3-2.2-2.8c0-1.6,1-2.8,2.2-2.8s2.2,1.3,2.2,2.8
	C22.1,37.7,21.1,38.9,19.9,38.9z"/>
<path class="st2" d="M31.4,38.2L31.4,38.2h3.7V37h-1.8v-3.2h1.8v-1.2h-4.5v4.9l0,0C30.6,37.8,31,38.2,31.4,38.2z"/>
<path class="st2" d="M25.5,40.4h3.2V43v0.1c0,0.6,0.7,1.1,1.5,1.1s1.5-0.5,1.5-1.1l0,0v-2.7h3.5v-1.3h-9.7V40.4z"/>
<path class="st2" d="M25.6,37.4L25.6,37.4L25.6,37.4c0,0.5,0.4,0.8,0.8,0.8l0,0l0,0h3.4V37h-1.5v-3.2h1.5v-1.2h-4.2L25.6,37.4
	C25.6,37.3,25.6,37.4,25.6,37.4z"/>
<path class="st2" d="M36.1,33.8h2.7v6.7c0,0,0,1.3-1.9,1.6l0,0c-0.5,0.1-0.7,0.3-0.7,0.7s0.3,0.7,0.7,0.7l0,0c0,0,4.6,0.2,4.6-2.8
	v-8.2h-5.3L36.1,33.8L36.1,33.8z"/>
<path class="st2" d="M42.5,42.8c0,0.6,0.6,1.1,1.4,1.1c0.8,0,1.3-0.5,1.3-1.1V32.3h-2.8L42.5,42.8L42.5,42.8z"/>
<path class="st0" d="M39.4,19.9c2.1-4.2-2.9-12.6-11.6-9.9c0,0-2.2-1.5-4.1,0.1c0,0-1.5,1.3-0.6,3.4c-0.6,0.7-1.1,1.4-1.6,2.2
	c0,0.1-0.1,0.1-0.1,0.2c0,0.1-0.1,0.1-0.1,0.2c-0.1,0.1-0.1,0.3-0.2,0.4l0,0C21,16.6,21,16.8,20.9,17l0,0c-0.3,0.9-0.5,1.8-0.5,2.6
	c0,0.1,0,0.3,0,0.4v0.1c0,9.5,13.6,12,17.6,4.3C38.8,23.8,41.2,21.8,39.4,19.9z M37,22.4c-1,3.8-5.1,4.6-7,4.6
	c-4.2,0-7.6-2.8-7.9-6.9l0,0V20c0-0.5,0.1-1.1,0.2-1.5c0.3-1.4,1-2.7,2-3.7c0.1,0,0.3,0,0.3,0c2.1,0.2,3.2-0.6,3.2-0.6
	c3.3,2,3.7-0.4,3.7-0.4C29.9,14,30.6,13,30.6,13c0.4-0.6,1.4-0.4,1.4-0.4c5.1,0.8,3.4,4.2,3.4,4.2c1.5,0.9,0.8,1.6,0.8,1.6
	c-1-0.3-1.1,0.1-1,0.6s0.5,0.8,0.9,1.1c0.3,0.2,0.4,0.6,0.5,0.8c0,0.1,0.1,0.2,0.1,0.3v0.1c0,0.2,0.1,0.4,0.1,0.5
	c0.1,0.1,0.1,0,0.2-0.1c0.3-0.7,1.4-1.4,1.4-0.3C38.3,22.8,37,22.4,37,22.4z"/>
<path class="st0" d="M34,22c0-0.1-0.2-0.1-0.3,0c-0.2,0.1-0.4,0.2-0.6,0.3c-0.3,0.2-1.1,0.6-1.5,0.6c0.6-0.9,0.4-1.8-0.2-1.9
	c-0.5-0.1-0.7,0.2-1.3,0.7c-0.5,0.5-1,0.8-1.6,0.8c-0.7,0-1.2-0.4-1.7-0.9s-1.2-1.1-2-1.1c-0.2,0-0.4,0.2,0.1,0.4
	c1.2,0.6,1.8,1.7,3,2.4c1.3,0.7,2.8,0.7,4.2,0.3C32.9,23.2,34.2,22.4,34,22z M30.6,22.8c-0.4,0.1-0.9,0-0.9,0s1-0.1,1.4-1
	C31,22.5,30.6,22.8,30.6,22.8z"/>
<path class="st0" d="M25.5,15.8c0.3-0.1,0.7-0.1,1,0.1c0.3,0.2,0.5,0.3,0.5,0.1c0.1-0.2,0-0.5-0.1-0.6c-0.3-0.4-1.1-0.9-2.5,0.4
	c0,0-1,1,0.2,0.4C24.8,16.1,25.1,15.9,25.5,15.8z"/>
<path class="st0" d="M33.3,14.2L32,14.7c-0.8,0.4-0.3,1-0.3,1c0.7,0.7,1.3,0.1,1.3,0.1c0.9-1,1.9-0.5,1.9-0.5
	C34.6,13.4,33.3,14.2,33.3,14.2z"/>
<path class="st0" d="M31.1,17.5c-0.7,0-1.3,0.6-1.3,1.3c0,0.7,0.6,1.3,1.3,1.3c0.7,0,1.3-0.6,1.3-1.3S31.8,17.5,31.1,17.5z"/>
<path class="st0" d="M28.4,18.7c0.1-0.1,0.1-0.3,0.1-0.4c0-0.4-0.2-1.1-0.9-1.1c0,0,0.8,1.1-0.3,1.3c0,0-1.1,0.3,0.2,1
	c0,0,1.2,0.7,1.2-0.1C28.6,19.4,27.9,19.5,28.4,18.7z"/>
<path class="st0" d="M26.7,18.1c0-0.1,0-0.2-0.1-0.3c-0.1-0.1-0.1-0.3-0.2-0.4c-0.1-0.2-0.2-0.3-0.4-0.4c-0.2-0.2-0.5-0.2-0.7-0.2
	c-0.1,0-0.2,0-0.4,0c-0.1,0-0.3,0-0.4,0.1c-0.1,0-0.2,0.1-0.3,0.1c-0.2,0.1,0,0.2,0.1,0.2s0.3,0,0.4,0c0.3,0,0.9,0,1.3,0.4l0,0
	c-0.5-0.3-1.1-0.2-1.5,0c-0.3,0.1-0.4,0.3-0.4,0.4s0.4,0,0.5,0c0.2-0.1,0.5-0.1,0.7-0.1c0.4,0.1,0.8,0.3,1.2,0.4h0.1
	C26.8,18.2,26.7,18.1,26.7,18.1z"/>
<path class="st1" d="M18.7,35.6c0,0.4-0.2,0.6-0.5,0.6h-5.3c-0.3,0-0.5-0.2-0.5-0.6c0-0.4,0.2-0.6,0.5-0.6h1.8v-0.8
	c0-0.3-0.1-0.4-0.5-0.6c-0.2-0.1-0.3-0.2-0.3-0.5s0.2-0.4,0.4-0.4c0.5,0.1,1,0.1,1.4,0.1c0.3,0,0.6,0,0.9,0c0.2,0,0.3,0.1,0.3,0.3
	v1.2c0,0.4-0.2,0.6-0.5,0.7h1.9C18.5,35,18.7,35.2,18.7,35.6z M19.4,41.3h-0.8c-0.2,0-0.4-0.1-0.4-0.3c-0.3,1.5-1.2,2.3-2.6,2.3
	c-1.8,0-2.7-1.1-2.7-3.3s0.9-3.3,2.7-3.3s2.7,1.1,2.7,3.3c0,0.1,0,0.2,0,0.2c0.1-0.1,0.2-0.2,0.4-0.2h0.8v-1.9h-0.9
	c-0.3,0-0.5-0.2-0.5-0.6c0-0.4,0.2-0.6,0.5-0.6h0.9v-3.6c0-0.2,0.1-0.3,0.3-0.3h1.4c0.2,0,0.3,0.1,0.3,0.3v10.4c0,0.5-0.3,0.8-1,0.8
	s-1-0.3-1-0.8L19.4,41.3L19.4,41.3z M15.5,37.8c-0.5,0-0.8,0.6-0.8,2.1S15,42,15.5,42s0.8-0.6,0.8-2.1C16.3,38.4,16,37.8,15.5,37.8z
	 M23.9,43.9c0,0.5-0.3,0.8-1,0.8s-1-0.3-1-0.8V33.2c0-0.2,0.1-0.3,0.3-0.3h1.4c0.2,0,0.3,0.1,0.3,0.3C23.9,33.2,23.9,43.9,23.9,43.9
	z"/>
<path class="st1" d="M31.4,40.5v3.3c0,0.5-0.4,0.8-1.2,0.8c-0.8,0-1.2-0.3-1.2-0.8v-3.3h-4.3c-0.3,0-0.5-0.2-0.5-0.6
	c0-0.4,0.2-0.6,0.5-0.6h10.9c0.3,0,0.5,0.2,0.5,0.6c0,0.4-0.2,0.6-0.5,0.6H31.4z M34.9,32.8c0.3,0,0.5,0.3,0.5,0.7s-0.2,0.7-0.5,0.7
	h-2.4c0.1,0.2,0.1,0.4,0.1,0.7v1.3c0,0.6,0.2,0.8,0.9,0.8c0.6,0,1.2-0.1,1.6-0.3c0.6-0.2,1,0.9,0.3,1.1c-0.6,0.3-1.6,0.4-2.8,0.4
	c-1.1,0-1.8-0.3-2.1-0.7c-0.8,0.4-1.8,0.7-3,0.7c-2.2,0-2.8-0.6-2.6-1.8c0.1-0.6,0.2-1.3,0.2-1.9c0-0.5-0.1-0.8-0.4-1
	c-0.2-0.1-0.3-0.3-0.3-0.5c0.1-0.3,0.2-0.4,0.4-0.4c0.7,0.1,1.4,0.1,2.1,0.1c0.6,0,1.1,0,1.8-0.1c0.3,0,0.5,0.3,0.5,0.7
	S29,34,28.7,34h-1.4c0.1,0.2,0.1,0.4,0.1,0.7V36c0,0.6,0.2,0.8,0.9,0.7c0.7,0,1.4-0.2,1.9-0.4v-1.8c0-0.6-0.1-0.8-0.4-1
	c-0.2-0.1-0.3-0.3-0.3-0.5c0-0.3,0.2-0.4,0.4-0.4c0.8,0,1.6,0.1,2.4,0.1C33.1,32.9,34,32.8,34.9,32.8z"/>
<path class="st1" d="M36.4,34.3c-0.3,0-0.5-0.2-0.5-0.6c0-0.4,0.2-0.7,0.5-0.6c0.8,0,1.6,0.1,2.3,0.1c0.6,0,1.5,0,2.2-0.1
	c1.2-0.1,1.8,0.4,1.7,1.8c-0.2,2.9-2.4,5.7-5.9,7.4c-0.8,0.4-1.5-0.6-0.9-1c2.5-1.8,3.9-4.2,4.1-6.3c0-0.5-0.1-0.6-0.6-0.6h-2.9
	V34.3z M43.9,43.3V32.9c0-0.2,0.1-0.3,0.3-0.3H46c0.2,0,0.3,0.1,0.3,0.3v10.3c0,0.5-0.4,0.7-1.2,0.7S43.9,43.8,43.9,43.3z"/>
</svg>
